Coordinates
version=1
nRows=24
nColumns=24
inDegrees=yes

Units are S.I. units (second, meters, Newtons, ...)
Angles are in degrees.

endheader
time	pelvis_tilt	pelvis_list	pelvis_rotation	pelvis_tx	pelvis_ty	pelvis_tz	hip_flexion_r	hip_adduction_r	hip_rotation_r	knee_angle_r	ankle_angle_r	subtalar_angle_r	mtp_angle_r	hip_flexion_l	hip_adduction_l	hip_rotation_l	knee_angle_l	ankle_angle_l	subtalar_angle_l	mtp_angle_l	lumbar_extension	lumbar_bending	lumbar_rotation
      1.30650000	     -1.64520108	      6.85004415	     -0.28627070	      0.20559129	      0.99382099	      0.30202956	     20.29423892	     -6.79438086	      1.12642730	    -69.52797365	     -1.27629802	     -9.29133359	      4.56967601	     10.21304343	     12.17863708	      1.79103853	    -10.85038845	     -0.25719911	    -15.59172834	     -1.54934011	      0.87011611	     -4.89066829	      2.75435582
      1.31066667	     -1.57009654	      6.77464785	     -0.29163357	      0.21057084	      0.99452572	      0.30193871	     20.77963734	     -6.66279508	      1.27997682	    -69.26771593	     -0.55051005	     -9.52076890	      4.49525485	      9.65795834	     12.11599557	      1.93989785	    -10.58099840	     -0.11868899	    -15.60812857	     -1.58637658	      0.76598723	     -4.79105295	      2.69960358
      1.31483333	     -1.45525986	      6.71103113	     -0.29384986	      0.21555951	      0.99525338	      0.30184274	     21.20480107	     -6.55324535	      1.41552662	    -68.95432242	      0.12199842	     -9.79800996	      4.29864810	      9.03696665	     12.06908348	      2.12870256	    -10.26522766	     -0.00905924	    -15.67156089	     -1.68230467	      0.61956896	     -4.72634951	      2.60450677
      1.31900000	     -1.40566757	      6.59811138	     -0.28171200	      0.22048994	      0.99587505	      0.30175048	     21.68268970	     -6.38381403	      1.53894015	    -68.57798454	      0.80809521	     -9.94954953	      4.21964768	      8.52882800	     11.96378863	      2.27403645	    -10.03399564	      0.15113801	    -15.66984998	     -1.72209780	      0.53830443	     -4.57750908	      2.56298787
      1.32316667	     -1.29097779	      6.53507190	     -0.27854241	      0.22546182	      0.99654254	      0.30165074	     22.07713096	     -6.28362055	      1.65582334	    -68.16081253	      1.44852040	    -10.17876674	      4.01929124	      7.91551205	     11.91329038	      2.44345805	     -9.73021234	      0.28030055	    -15.70583027	     -1.82054374	      0.39563394	     -4.50902496	      2.46899185
      1.32733333	     -1.27109513	      6.42687372	     -0.25483796	      0.23036824	      0.99704351	      0.30155365	     22.55976064	     -6.12742910	      1.75896646	    -67.68929456	      2.07575852	    -10.30256179	      3.95417579	      7.44742313	     11.81048888	      2.58418928	     -9.51037467	      0.45096278	    -15.70307875	     -1.85348658	      0.35984335	     -4.36726163	      2.43185587
      1.33150000	     -1.19594127	      6.33303962	     -0.23382452	      0.23527494	      0.99759604	      0.30145371	     22.96552178	     -5.99426886	      1.85456097	    -67.16970707	      2.69519674	    -10.46213648	      3.88164089	      6.90770680	     11.72228511	      2.73254013	     -9.26411021	      0.61566314	    -15.69316654	     -1.88947165	      0.24774307	     -4.24729218	      2.37212030
      1.33566667	     -1.12036510	      6.24217285	     -0.20810035	      0.24016108	      0.99810521	      0.30136585	     23.35590499	     -5.86520401	      1.94353241	    -66.60262791	      3.26855349	    -10.61334847	      3.79927814	      6.37043843	     11.63602087	      2.89123796	     -9.02052947	      0.77683595	    -15.68852347	     -1.92991179	      0.12707178	     -4.14433815	      2.29929287
      1.33983333	     -1.04413027	      6.16013314	     -0.17642089	      0.24502928	      0.99858318	      0.30127227	     23.72792633	     -5.74699711	      2.03316670	    -65.98473957	      3.81072994	    -10.75240643	      3.69286426	      5.83523849	     11.55854072	      3.05966349	     -8.77939203	      0.93191107	    -15.69282936	     -1.98221237	      0.01239179	     -4.06703813	      2.21111658
      1.34400000	     -0.95407415	      6.09275035	     -0.15147962	      0.24991195	      0.99903926	      0.30116986	     24.07540658	     -5.65648339	      2.10748938	    -65.33205861	      4.29582129	    -10.90315930	      3.47478113	      5.26778932	     11.49591398	      3.23429151	     -8.50048130	      1.07854113	    -15.71992905	     -2.08850027	     -0.12818846	     -3.98055027	      2.07596464
      1.34816667	     -0.93656812	      5.99726186	     -0.10085954	      0.25474294	      0.99936583	      0.30105762	     24.47951775	     -5.53313788	      2.16913682	    -64.62292208	      4.77807122	    -10.96875587	      3.38212006	      4.82214781	     11.40062840	      3.38103635	     -8.30760478	      1.25484895	    -15.70475089	     -2.13264841	     -0.17233025	     -3.86778629	      2.03231905
      1.35233333	     -0.82797414	      5.92519385	     -0.06928076	      0.25961174	      0.99978121	      0.30095665	     24.76960607	     -5.44281801	      2.22493525	    -63.87416793	      5.20604952	    -11.08600798	      3.15408072	      4.24111694	     11.32778740	      3.53620627	     -8.03852589	      1.42148768	    -15.68286083	     -2.24036251	     -0.33951506	     -3.78147421	      1.90259678
      1.35650000	     -0.81898651	      5.84207597	     -0.01057858	      0.26441569	      1.00001260	      0.30083644	     25.15461985	     -5.34213939	      2.26887776	    -63.08611314	      5.62899039	    -11.13604005	      3.06380727	      3.81314615	     11.24284755	      3.68107563	     -7.85795602	      1.60795600	    -15.66298025	     -2.28132564	     -0.38065580	     -3.67981640	      1.85971117
      1.36066667	     -0.72457244	      5.79094076	      0.02849263	      0.26924938	      1.00032781	      0.30073997	     25.43202248	     -5.27974901	      2.31527190	    -62.25869654	      5.99481450	    -11.21833038	      2.85208895	      3.25610592	     11.18843149	      3.83008516	     -7.59884657	      1.77864135	    -15.63981270	     -2.37718960	     -0.52943061	     -3.62416446	      1.72750465
      1.36483333	     -0.70854524	      5.71188136	      0.09855664	      0.27404008	      1.00052537	      0.30062017	     25.76867071	     -5.19019306	      2.34020776	    -61.37496130	      6.34585386	    -11.26242483	      2.75607569	      2.82154256	     11.10342940	      3.98280055	     -7.41844200	      1.96125655	    -15.60849093	     -2.41798602	     -0.58055735	     -3.52883073	      1.67827580
      1.36900000	     -0.63399624	      5.66046306	      0.13909663	      0.27885964	      1.00075027	      0.30051836	     26.03581141	     -5.12746096	      2.37886478	    -60.47693564	      6.74445501	    -11.22909332	     -0.76449168	      2.28098078	     11.04862323	      4.16446104	     -7.14895256	      2.11402959	    -15.63731057	     -3.95846391	     -0.70864268	     -3.46460032	      1.55758829
      1.37316667	     -0.62792177	      5.59572855	      0.22066990	      0.28363279	      1.00084472	      0.30039296	     26.35324297	     -5.06641980	      2.37390480	    -59.52053038	      6.98630590	    -11.27751824	     -0.76992700	      1.86259959	     10.97457922	      4.30805755	     -6.97786008	      2.33330851	    -15.55909588	     -3.95073402	     -0.76019140	     -3.39422914	      1.50710423
      1.37733333	     -0.59042548	      5.55104450	      0.28695071	      0.28841462	      1.00094905	      0.30027199	     26.62293837	     -5.02530760	      2.38125645	    -58.53209176	      7.22997301	    -11.33174899	     -0.78027692	      1.39831304	     10.92057889	      4.44014375	     -6.77891916	      2.52417061	    -15.49045544	     -3.94427123	     -0.84692245	     -3.33891423	      1.42023093
      1.38150000	     -0.54851001	      5.49803236	      0.35755875	      0.29319139	      1.00104015	      0.30015749	     26.86459718	     -4.97788532	      2.37363010	    -57.49535083	      7.43050632	    -11.37714571	     -0.79542136	      0.92796024	     10.85528282	      4.57775061	     -6.57669478	      2.70925464	    -15.43211038	     -3.93836304	     -0.93773645	     -3.27538402	      1.32921446
      1.38566667	     -0.50983561	      5.46037314	      0.42493313	      0.29797165	      1.00107958	      0.30004259	     27.09870265	     -4.95113758	      2.35905960	    -56.43351885	      7.59655521	    -11.41911413	     -0.81666971	      0.45581913	     10.80534178	      4.71067729	     -6.36296891	      2.89003623	    -15.37509914	     -3.93282005	     -1.03106078	     -3.23348137	      1.23006044
      1.38983333	     -0.50246351	      5.43358081	      0.49883311	      0.30272588	      1.00102721	      0.29991920	     27.35367004	     -4.93828470	      2.34128073	    -55.34227118	      7.73983343	    -11.45676767	     -0.84122670	      0.02730205	     10.76712089	      4.85038106	     -6.16690575	      3.06784280	    -15.32361242	     -3.92762300	     -1.08286629	     -3.19863027	      1.14081470
      1.39400000	     -0.48280219	      5.41092011	      0.57388248	      0.30748094	      1.00097789	      0.29979713	     27.57490470	     -4.93412942	      2.30933956	    -54.21232656	      7.85233337	    -11.49059506	     -0.87032955	     -0.41746608	     10.73148690	      4.98596443	     -5.96462157	      3.24026206	    -15.26815037	     -3.92291767	     -1.15143522	     -3.17106048	      1.04903279
      1.39816667	     -0.47159126	      5.38511847	      0.64944678	      0.31223963	      1.00088366	      0.29968216	     27.78657436	     -4.92887117	      2.26513338	    -53.04851449	      7.93559187	    -11.52076189	     -0.90346795	     -0.85600117	     10.68947653	      5.11965265	     -5.75641516	      3.41423943	    -15.21158777	     -3.91846334	     -1.21419283	     -3.13982075	      0.95913365
      1.40233333	     -0.47475145	      5.37846797	      0.72442511	      0.31698551	      1.00072376	      0.29955578	     28.00167739	     -4.94618154	      2.22159252	    -51.86113848	      7.99864908	    -11.53732477	     -0.93655042	     -1.27344691	     10.66975007	      5.25205813	     -5.55874421	      3.58462600	    -15.15263046	     -3.91427142	     -1.24775133	     -3.11693271	      0.87941144
